<?xml version="1.0" encoding="UTF-8"?>
<!--
  AMPEL360 Q100 – ATA 28-20
  H₂ Cryogenic Shut-Off Valve – Assembly Breakdown
  FIG-28-20-001  REV A
  DMC: DMC-AMPEL360-A-28-20-00-00A-040A-D
  Authority: ASIT / Contract KITDM-CTR-LM-CSDB_ATA28_H2
  Lifecycle: LC04 – Design Definition
  Special Conditions: SC-28-H2-001, SC-28-CRYO-002
  Issue Date: 2026-03-07
-->
<svg
  xmlns="http://www.w3.org/2000/svg"
  xmlns:xlink="http://www.w3.org/1999/xlink"
  viewBox="0 0 800 600"
  width="800"
  height="600"
  role="img"
  aria-label="H₂ Cryogenic Shut-Off Valve Assembly Breakdown FIG-28-20-001 REV A"
>
  <defs>
    <style>
      .title-block { font-family: 'Courier New', monospace; }
      .part-label  { font-family: 'Courier New', monospace; font-size: 11px; fill: #1a1a2e; }
      .hotspot     { cursor: pointer; }
      .hotspot circle { fill: #2563eb; stroke: #1d4ed8; stroke-width: 1.5; opacity: 0.9; }
      .hotspot text  { fill: white; font-family: 'Courier New', monospace; font-size: 9px;
                       font-weight: bold; text-anchor: middle; dominant-baseline: central; }
      .leader-line { stroke: #6b7280; stroke-width: 0.8; stroke-dasharray: 3,2; fill: none; }
      .dim-line    { stroke: #9ca3af; stroke-width: 0.5; fill: none; }
      .border      { fill: none; stroke: #374151; stroke-width: 1.5; }
      .grid        { stroke: #f3f4f6; stroke-width: 0.3; }
      .body-fill   { fill: #dbeafe; stroke: #3b82f6; stroke-width: 1.5; }
      .body-dark   { fill: #bfdbfe; stroke: #2563eb; stroke-width: 1.0; }
      .actuator-fill { fill: #dcfce7; stroke: #16a34a; stroke-width: 1.5; }
      .insul-fill  { fill: #fef3c7; stroke: #d97706; stroke-width: 1.0; stroke-dasharray: 4,2; }
      .seal-fill   { fill: #fce7f3; stroke: #db2777; stroke-width: 1.0; }
      .fastener    { fill: #f1f5f9; stroke: #64748b; stroke-width: 0.8; }
      .centerline  { stroke: #94a3b8; stroke-width: 0.5; stroke-dasharray: 8,3,2,3; fill: none; }
    </style>
    <marker id="arrow" markerWidth="6" markerHeight="6" refX="3" refY="3" orient="auto">
      <path d="M0,0 L0,6 L6,3 z" fill="#6b7280"/>
    </marker>
  </defs>

  <!-- Background -->
  <rect width="800" height="600" fill="#f8fafc"/>

  <!-- Drawing border -->
  <rect x="10" y="10" width="780" height="540" class="border"/>
  <!-- Inner border -->
  <rect x="14" y="14" width="772" height="532" class="border" style="stroke-width:0.5"/>

  <!-- ═══════════════════════════════════════════════════
       TITLE BLOCK (bottom)
  ═══════════════════════════════════════════════════ -->
  <rect x="10" y="510" width="780" height="40" fill="#1e3a5f" rx="0"/>
  <line x1="300" y1="510" x2="300" y2="550" stroke="#4b6a8a" stroke-width="0.5"/>
  <line x1="550" y1="510" x2="550" y2="550" stroke="#4b6a8a" stroke-width="0.5"/>
  <line x1="650" y1="510" x2="650" y2="550" stroke="#4b6a8a" stroke-width="0.5"/>

  <text x="20" y="524" class="title-block" font-size="7" fill="#93c5fd">AMPEL360 Q100 · ATA 28-20 · CRYOGENIC H₂ DISTRIBUTION</text>
  <text x="20" y="538" class="title-block" font-size="10" fill="white" font-weight="bold">H₂ Cryogenic Shut-Off Valve – Assembly Breakdown</text>

  <text x="310" y="524" class="title-block" font-size="7" fill="#93c5fd">DMC</text>
  <text x="310" y="536" class="title-block" font-size="8" fill="white">DMC-AMPEL360-A-28-20-00-00A-040A-D</text>
  <text x="310" y="547" class="title-block" font-size="7" fill="#93c5fd">SCALE: NTS · SHEET 1 OF 1</text>

  <text x="558" y="522" class="title-block" font-size="7" fill="#93c5fd">FIGURE</text>
  <text x="558" y="534" class="title-block" font-size="10" fill="white" font-weight="bold">FIG-28-20-001</text>
  <text x="558" y="546" class="title-block" font-size="7" fill="#fbbf24">⭐ Novel Technology · SC-28-H2-001</text>

  <text x="658" y="522" class="title-block" font-size="7" fill="#93c5fd">REV</text>
  <text x="658" y="534" class="title-block" font-size="14" fill="white" font-weight="bold">A</text>
  <text x="658" y="546" class="title-block" font-size="7" fill="#93c5fd">2026-03-07</text>

  <!-- ═══════════════════════════════════════════════════
       MAIN DRAWING AREA: H₂ Shut-Off Valve Cross-Section
  ═══════════════════════════════════════════════════ -->

  <!-- Valve centreline (horizontal) -->
  <line x1="80" y1="270" x2="520" y2="270" class="centerline"/>
  <!-- Valve centreline (vertical – stem) -->
  <line x1="300" y1="100" x2="300" y2="450" class="centerline"/>

  <!-- MLI Insulation blanket (N) - outermost layer -->
  <rect x="140" y="205" width="320" height="130" rx="12" class="insul-fill" opacity="0.6"/>
  <text x="143" y="220" class="part-label" font-size="9" fill="#92400e">MLI BLANKET (N)</text>

  <!-- Heat Shield (M) -->
  <rect x="155" y="215" width="290" height="110" rx="8" class="insul-fill" opacity="0.8" style="fill:#fde68a; stroke:#b45309;"/>

  <!-- Valve Body (B) – main body -->
  <rect x="170" y="228" width="260" height="84" rx="6" class="body-fill"/>
  <!-- Valve body flanges -->
  <rect x="155" y="238" width="30" height="64" rx="3" class="body-dark"/>
  <rect x="415" y="238" width="30" height="64" rx="3" class="body-dark"/>
  <!-- Flow bore -->
  <ellipse cx="300" cy="270" rx="28" ry="28" fill="white" stroke="#2563eb" stroke-width="1.5"/>
  <ellipse cx="300" cy="270" rx="22" ry="22" fill="#eff6ff" stroke="#93c5fd" stroke-width="0.8"/>

  <!-- Valve Disc (C) -->
  <ellipse cx="300" cy="270" rx="18" ry="18" class="body-dark" opacity="0.85"/>
  <line x1="300" y1="252" x2="300" y2="288" stroke="#1d4ed8" stroke-width="3"/>

  <!-- Valve Stem (D) - vertical -->
  <rect x="294" y="150" width="12" height="80" rx="3" class="body-dark"/>
  <!-- Stem packing region -->
  <rect x="292" y="220" width="16" height="14" rx="2" class="seal-fill"/>

  <!-- Bearing set (K) - stem support -->
  <rect x="290" y="218" width="20" height="5" rx="1" class="fastener" style="fill:#e0e7ff; stroke:#6366f1;"/>

  <!-- Seal groove markers (J) -->
  <rect x="168" y="238" width="8" height="64" rx="2" class="seal-fill"/>
  <rect x="424" y="238" width="8" height="64" rx="2" class="seal-fill"/>

  <!-- Actuator Assembly (E) - upper right -->
  <rect x="430" y="120" width="110" height="120" rx="8" class="actuator-fill"/>
  <text x="436" y="137" class="part-label" font-size="8" fill="#14532d">ACTUATOR</text>
  <!-- Actuator piston (F) -->
  <rect x="440" y="155" width="90" height="30" rx="4" class="actuator-fill" style="fill:#bbf7d0; stroke:#15803d;"/>
  <!-- Return Spring (I) -->
  <path d="M440,200 Q455,195 470,200 Q485,205 500,200 Q515,195 530,200" class="actuator-fill" style="fill:none; stroke:#16a34a; stroke-width:2;"/>
  <path d="M440,208 Q455,203 470,208 Q485,213 500,208 Q515,203 530,208" class="actuator-fill" style="fill:none; stroke:#16a34a; stroke-width:2;"/>
  <path d="M440,216 Q455,211 470,216 Q485,221 500,216 Q515,211 530,216" class="actuator-fill" style="fill:none; stroke:#16a34a; stroke-width:2;"/>
  <!-- Actuator yoke connecting to stem -->
  <line x1="430" y1="170" x2="306" y2="195" stroke="#16a34a" stroke-width="2"/>

  <!-- Solenoid Valve (G) - upper right corner -->
  <rect x="530" y="100" width="50" height="40" rx="5" style="fill:#fef9c3; stroke:#ca8a04; stroke-width:1.5;"/>
  <text x="533" y="114" class="part-label" font-size="8" fill="#713f12">SOLENOID</text>
  <text x="533" y="126" class="part-label" font-size="8" fill="#713f12">28VDC (G)</text>
  <!-- Solenoid to actuator line -->
  <line x1="530" y1="120" x2="490" y2="135" stroke="#ca8a04" stroke-width="1" stroke-dasharray="3,2"/>

  <!-- Position Sensor LVDT (H) -->
  <rect x="570" y="195" width="55" height="35" rx="5" style="fill:#faf0e6; stroke:#c2410c; stroke-width:1.5;"/>
  <text x="573" y="208" class="part-label" font-size="8" fill="#7c2d12">LVDT (H)</text>
  <text x="573" y="221" class="part-label" font-size="7" fill="#7c2d12">POS. SNSR</text>
  <!-- Sensor to stem line -->
  <line x1="570" y1="212" x2="306" y2="200" stroke="#c2410c" stroke-width="1" stroke-dasharray="3,2"/>

  <!-- Fastener callout (L) - flange bolts -->
  <circle cx="165" cy="262" r="4" class="fastener"/>
  <circle cx="165" cy="278" r="4" class="fastener"/>
  <circle cx="430" cy="262" r="4" class="fastener"/>
  <circle cx="430" cy="278" r="4" class="fastener"/>

  <!-- Flow direction arrows -->
  <path d="M100,270 L140,270" stroke="#374151" stroke-width="1.5" marker-end="url(#arrow)" fill="none"/>
  <text x="85" y="266" class="part-label" font-size="8" fill="#374151">LH₂</text>
  <path d="M460,270 L500,270" stroke="#374151" stroke-width="1.5" marker-end="url(#arrow)" fill="none"/>

  <!-- ═══════════════════════════════════════════════════
       HOTSPOT CALLOUT MARKERS (A–N)
  ═══════════════════════════════════════════════════ -->

  <!-- A: Assembly (50%, 15%) = x=400, y=90 -->
  <line x1="400" y1="90"  x2="300" y2="228" class="leader-line"/>
  <g class="hotspot" data-hotspot="A" data-item="0">
    <circle cx="400" cy="84" r="10"/>
    <text x="400" y="84">A</text>
  </g>

  <!-- B: Valve Body (35%, 40%) = x=280, y=240 -->
  <line x1="230" y1="252" x2="245" y2="258" class="leader-line"/>
  <g class="hotspot" data-hotspot="B" data-item="2">
    <circle cx="222" cy="252" r="10"/>
    <text x="222" y="252">B</text>
  </g>

  <!-- C: Valve Disc (50%, 45%) = x=400, y=270 -->
  <line x1="342" y1="300" x2="320" y2="282" class="leader-line"/>
  <g class="hotspot" data-hotspot="C" data-item="4">
    <circle cx="352" cy="306" r="10"/>
    <text x="352" y="306">C</text>
  </g>

  <!-- D: Valve Stem (50%, 30%) = x=400, y=180 -->
  <line x1="340" y1="175" x2="310" y2="180" class="leader-line"/>
  <g class="hotspot" data-hotspot="D" data-item="6">
    <circle cx="350" cy="175" r="10"/>
    <text x="350" y="175">D</text>
  </g>

  <!-- E: Actuator Assembly (65%, 30%) = x=520, y=180 -->
  <line x1="520" y1="165" x2="490" y2="155" class="leader-line"/>
  <g class="hotspot" data-hotspot="E" data-item="8">
    <circle cx="530" cy="165" r="10"/>
    <text x="530" y="165">E</text>
  </g>

  <!-- F: Actuator Piston (68%, 42%) = x=544, y=252 -->
  <line x1="542" y1="172" x2="530" y2="170" class="leader-line"/>
  <g class="hotspot" data-hotspot="F" data-item="10">
    <circle cx="552" cy="172" r="10"/>
    <text x="552" y="172">F</text>
  </g>

  <!-- G: Solenoid (72%, 22%) = x=576, y=132 -->
  <g class="hotspot" data-hotspot="G" data-item="12">
    <circle cx="584" cy="118" r="10"/>
    <text x="584" y="118">G</text>
  </g>

  <!-- H: LVDT Position Sensor (78%, 35%) = x=624, y=210 -->
  <g class="hotspot" data-hotspot="H" data-item="14">
    <circle cx="634" cy="212" r="10"/>
    <text x="634" y="212">H</text>
  </g>

  <!-- I: Return Spring (63%, 55%) = x=504, y=330 -->
  <line x1="504" y1="322" x2="490" y2="210" class="leader-line"/>
  <g class="hotspot" data-hotspot="I" data-item="16">
    <circle cx="504" cy="332" r="10"/>
    <text x="504" y="332">I</text>
  </g>

  <!-- J: Seal Set (42%, 58%) = x=336, y=348 -->
  <line x1="310" y1="340" x2="200" y2="300" class="leader-line"/>
  <g class="hotspot" data-hotspot="J" data-item="18">
    <circle cx="322" cy="348" r="10"/>
    <text x="322" y="348">J</text>
  </g>

  <!-- K: Bearing Set (38%, 52%) = x=304, y=312 -->
  <line x1="290" y1="320" x2="296" y2="228" class="leader-line"/>
  <g class="hotspot" data-hotspot="K" data-item="20">
    <circle cx="280" cy="326" r="10"/>
    <text x="280" y="326">K</text>
  </g>

  <!-- L: Fastener Kit (55%, 65%) = x=440, y=390 -->
  <line x1="420" y1="385" x2="432" y2="300" class="leader-line"/>
  <g class="hotspot" data-hotspot="L" data-item="22">
    <circle cx="410" cy="390" r="10"/>
    <text x="410" y="390">L</text>
  </g>

  <!-- M: Heat Shield (30%, 28%) = x=240, y=168 -->
  <line x1="220" y1="175" x2="220" y2="215" class="leader-line"/>
  <g class="hotspot" data-hotspot="M" data-item="24">
    <circle cx="220" cy="168" r="10"/>
    <text x="220" y="168">M</text>
  </g>

  <!-- N: MLI Blanket (25%, 45%) = x=200, y=270 -->
  <line x1="168" y1="265" x2="155" y2="248" class="leader-line"/>
  <g class="hotspot" data-hotspot="N" data-item="26">
    <circle cx="162" cy="270" r="10"/>
    <text x="162" y="270">N</text>
  </g>

  <!-- ═══════════════════════════════════════════════════
       NOTES / WARNINGS
  ═══════════════════════════════════════════════════ -->
  <rect x="20" y="415" width="120" height="85" rx="4" fill="#fef2f2" stroke="#dc2626" stroke-width="1.5"/>
  <text x="26" y="429" class="part-label" font-size="8" font-weight="bold" fill="#dc2626">⚠ DANGER</text>
  <text x="26" y="441" class="part-label" font-size="7" fill="#7f1d1d">LH₂ at –253°C.</text>
  <text x="26" y="452" class="part-label" font-size="7" fill="#7f1d1d">Cryogenic burns.</text>
  <text x="26" y="463" class="part-label" font-size="7" fill="#7f1d1d">H₂ flammable</text>
  <text x="26" y="474" class="part-label" font-size="7" fill="#7f1d1d">4–75% in air.</text>
  <text x="26" y="485" class="part-label" font-size="7" fill="#7f1d1d">Use full PPE.</text>
  <text x="26" y="496" class="part-label" font-size="7" fill="#7f1d1d">SC-28-H2-001</text>

  <!-- General notes -->
  <text x="160" y="420" class="part-label" font-size="8" fill="#374151" font-weight="bold">NOTES:</text>
  <text x="160" y="432" class="part-label" font-size="8" fill="#374151">1. ALL DIMS IN mm UNLESS NOTED. SCALE NTS.</text>
  <text x="160" y="443" class="part-label" font-size="8" fill="#374151">2. MATERIAL: BODY SS316L, DISC/STEM INCONEL 718.</text>
  <text x="160" y="454" class="part-label" font-size="8" fill="#374151">3. SEALS: PTFE CRYOGENIC GRADE, –253°C RATED.</text>
  <text x="160" y="465" class="part-label" font-size="8" fill="#374151">4. ACTUATOR: FAIL-CLOSED, SPRING RETURN.</text>
  <text x="160" y="476" class="part-label" font-size="8" fill="#374151">5. INSULATION: 10-LAYER MLI (MYLAR/NET).</text>
  <text x="160" y="487" class="part-label" font-size="8" fill="#374151">6. SEE CMM 28-20-10 FOR OVERHAUL LIMITS.</text>

  <!-- ═══════════════════════════════════════════════════
       PARTS LIST LEGEND (right margin)
  ═══════════════════════════════════════════════════ -->
  <rect x="638" y="240" width="145" height="258" rx="4" fill="white" stroke="#d1d5db" stroke-width="1"/>
  <rect x="638" y="240" width="145" height="16" rx="4" fill="#1e3a5f"/>
  <text x="643" y="252" class="part-label" font-size="8" fill="white" font-weight="bold">ITEM  NOMENCLATURE</text>
  <line x1="638" y1="256" x2="783" y2="256" stroke="#d1d5db" stroke-width="0.5"/>

  <!-- Item rows -->
  <text x="643" y="267" class="part-label" font-size="7" fill="#111827">A·00  Assembly – Top Level</text>
  <text x="643" y="277" class="part-label" font-size="7" fill="#111827">B·02  Valve Body</text>
  <text x="643" y="287" class="part-label" font-size="7" fill="#111827">C·04  Valve Disc</text>
  <text x="643" y="297" class="part-label" font-size="7" fill="#111827">D·06  Valve Stem</text>
  <text x="643" y="307" class="part-label" font-size="7" fill="#111827">E·08  Actuator Assy</text>
  <text x="643" y="317" class="part-label" font-size="7" fill="#111827">F·10  Actuator Piston</text>
  <text x="643" y="327" class="part-label" font-size="7" fill="#111827">G·12  Solenoid 28VDC</text>
  <text x="643" y="337" class="part-label" font-size="7" fill="#111827">H·14  LVDT Sensor</text>
  <text x="643" y="347" class="part-label" font-size="7" fill="#111827">I·16  Return Spring</text>
  <text x="643" y="357" class="part-label" font-size="7" fill="#111827">J·18  Seal Set PTFE</text>
  <text x="643" y="367" class="part-label" font-size="7" fill="#111827">K·20  Bearing Set</text>
  <text x="643" y="377" class="part-label" font-size="7" fill="#111827">L·22  Fastener Kit</text>
  <text x="643" y="387" class="part-label" font-size="7" fill="#111827">M·24  Heat Shield</text>
  <text x="643" y="397" class="part-label" font-size="7" fill="#111827">N·26  MLI Blanket</text>

  <line x1="638" y1="402" x2="783" y2="402" stroke="#d1d5db" stroke-width="0.5"/>
  <text x="643" y="413" class="part-label" font-size="7" fill="#6b7280">14 line items total</text>
  <text x="643" y="423" class="part-label" font-size="7" fill="#6b7280">BL-28-004 · LC04</text>
  <text x="643" y="433" class="part-label" font-size="7" fill="#6b7280">ASIT · BL: BL-28-004</text>

  <!-- Traceability watermark -->
  <text x="400" y="500" class="title-block" font-size="7" fill="#9ca3af" text-anchor="middle">
    SSOT: SSOT-Q100-C2-004 · DPP: DPP-ATA28-20-001 · BL: BL-28-004 · LC04 · © AMPEL360 Q100 PROGRAMME
  </text>
</svg>
